#!OML:ASF F:\VICON\USERDATA\INSTALL\rory3\rory3.ASF
:FULLY-SPECIFIED
:DEGREES
71
root -5.482550949954964 18.04455643395182 -1.622202003724988 -179.9342995515444 27.41152393646162 -181.7889422652383
lfemur -12.760051898674767 -6.115771884433402 -21.073250848540937
ltibia 18.206903722654666
lfoot 5.969138237025557 -39.3346429111838
ltoes 21.48559434151426
rfemur 6.530628687312573 -5.3111353367555365 6.194743586398419
rtibia 32.95557936526331
rfoot 11.139570566069654 -30.527397887228858
rtoes 16.469077668834313
lowerback -8.206577794501337 5.437839590331021 10.908136209026388
upperback -2.602936271057641 9.15848366340622 14.81708525849982
thorax 0.6197165652725272 5.573329209924635 10.160455478278974
lowerneck -3.1157734347574397 -23.46702345182098 -5.661153776443632
upperneck 28.83811133174123 -28.45286423906712 -4.616773081356042
head 8.983070874072352 -13.227543718524464 -2.511438836314377
lclavicle -4.465504136507491e-15 -9.757339303127592e-15
lhumerus 18.936095902704096 -16.289372128901483 89.09645580994147
lradius 38.23791081673669
lwrist 52.948818915833144
lhand -13.4779957821955 48.05914831163969
lfingers 7.125020000000001
lthumb -167.3737397503428 0.06783102187974777
rclavicle -4.46550413650749e-15 -9.757339303127592e-15
rhumerus 43.109667073337704 45.449786314907215 -77.52849372869782
rradius 30.24120362475115
rwrist -10.344164655722276
rhand 2.1547814811922947 -4.029893677858283
rfingers 7.125020000000001
rthumb 27.68436031950445 -31.884799520856024
72
root -5.4582007759789635 18.041742066574393 -1.8032685033776752 -179.80870054456926 24.060942118600607 -181.58921205891897
lfemur -14.051187750470723 -7.496045171040599 -20.15869793841204
ltibia 19.67158728071464
lfoot 6.891737403704681 -40.35286939588666
ltoes 23.971913939549818
rfemur 7.757617102284408 -5.790476113268424 7.558136539028432
rtibia 31.745495352529115
rfoot 13.208774357369379 -30.848743224531745
rtoes 19.31757688264326
lowerback -7.852849872926027 6.7216471231462585 12.354198392237242
upperback -3.927960181812363 11.314778569311638 14.390100123834596
thorax -1.030602799826458 6.714022077760665 8.792887392524541
lowerneck -3.195006545949954 -23.594345463751992 -4.656815960241053
upperneck 26.963434704325397 -30.315765415989414 -2.9931169493087055
head 8.512064897124603 -14.246909276846143 -2.251834109541017
lclavicle -4.481548051373515e-15 -9.799663116708466e-15
lhumerus 21.670223004797613 -11.30209365046031 85.84073311540078
lradius 44.785010878050834
lwrist 51.62007658908959
lhand -16.33558833836003 39.268879164617076
lfingers 7.125020000000001
lthumb -170.13135313438195 2.326420713840754
rclavicle -4.481548051373514e-15 -9.799663116708466e-15
rhumerus 53.92356693996593 47.51372045706108 -71.90222877094712
rradius 34.48862181545635
rwrist -2.8066329712926468
rhand 0.18486596693058033 0.06755432347147661
rfingers 7.125020000000001
rthumb 25.78640424035995 -28.014361461088264
73
root -5.4346976152980275 18.049611760352484 -1.9868521982724527 -179.28770193693612 20.521128601001152 -181.34309916718098
lfemur -15.346234906771553 -8.915434340451375 -19.410643758309803
ltibia 20.14374870829109
lfoot 8.303075875231396 -41.08435818769923
ltoes 26.11819048620262
rfemur 8.302575080992211 -6.098705352051148 8.891458446304618
rtibia 30.64742816401792
rfoot 15.15398151818151 -31.642629680065966
rtoes 22.21188014743353
lowerback -7.618535484153543 7.830113574106161 13.523232969239523
upperback -5.333982880460503 13.024081669509354 13.522026627248684
thorax -2.4178149470922934 7.50356724756228 7.088910498927469
lowerneck -3.5108400639959143 -23.10719318391413 -3.7221666813147842
upperneck 24.757566137907205 -32.00270500330664 -1.1945049321983348
head 8.071442427945748 -15.391271035645065 -1.9753401419166075
lclavicle -4.796050022871522e-15 -1.007611584346706e-14
lhumerus 24.994783576423565 -6.66173647760418 82.96508531365194
lradius 50.50472204892287
lwrist 48.71684716216109
lhand -18.559554476663727 32.035715858051745
lfingers 7.125020000000001
lthumb -172.27936187976294 6.4707739476201525
rclavicle -4.796050022871522e-15 -1.0076115843467061e-14
rhumerus 64.30159943346331 46.975163898622554 -67.32563466824608
rradius 37.933305196751746
rwrist 2.120519624371312
rhand -3.164168892490764 3.782269794220813
rfingers 7.125020000000001
rthumb 22.565899609018807 -24.67071823795007
74
root -5.398626916080193 18.066484925697605 -2.1805867995366417 -178.25049242811298 16.788424373534724 -180.78828573654118
lfemur -16.480061467866445 -10.375162346448086 -18.8312391029965
ltibia 20.11824037615268
lfoot 10.118189577149295 -41.72917023183273
ltoes 28.43075909440426
rfemur 8.746671275402223 -6.316301397510925 10.32380913963003
rtibia 29.45334452836726
rfoot 16.893907411753368 -32.96769928244576
rtoes 24.793780351558205
lowerback -7.574698520577239 8.799276576913295 14.556498856961694
upperback -6.804963849600991 14.403807556423736 12.342984236939174
thorax -3.5478429237982194 8.042511036750543 5.1936288852213615
lowerneck -3.957172880424931 -22.492414350038754 -2.9867939663247975
upperneck 22.434190730105485 -33.44653799835306 0.5558004719823453
head 7.674785926691972 -16.482187165271213 -1.6936026872356125
lclavicle -5.039691634260179e-15 -1.0271477491506297e-14
lhumerus 29.27709729200759 -1.6069143407786726 80.6014879127645
lradius 55.69844877294338
lwrist 45.282650731021135
lhand -20.546214981884848 26.69007855379602
lfingers 7.125020000000001
lthumb -174.19393841659343 3.4822617007645604
rclavicle -5.039691634260179e-15 -1.0271477491506297e-14
rhumerus 74.58596253672997 45.726623864627385 -63.25344766572677
rradius 41.029349024206645
rwrist 4.830496024407434
rhand -6.892927624476435 6.761707416866617
rfingers 7.125020000000001
rthumb 18.981229363911396 -22.034375938319073
75
root -5.354452991023283 18.08436256361401 -2.3716857157546816 -176.83413138973245 12.995275241288716 -179.94183454211068
lfemur -17.541917284494993 -11.687952716650173 -18.303275117303052
ltibia 20.332238903536847
lfoot 12.160153645499829 -42.28950685816879
ltoes 31.166399160796992
rfemur 9.328637289858642 -6.651861131665219 11.979471129873966
rtibia 28.054909547823158
rfoot 18.380879579802205 -34.430151472518695
rtoes 26.75149513612348
lowerback -7.634460458439323 9.578274242242378 15.38041453204999
upperback -8.322412618883597 15.546326287213692 10.979819485673973
thorax -4.58251158687867 8.451602951393877 3.3127781590938414
lowerneck -4.441405636389721 -22.158954200287724 -2.4303523908886846
upperneck 20.115179663239886 -34.34253649421574 1.960307964179595
head 7.277716932755964 -17.178512818088993 -1.4187321543627687
lclavicle -5.227142618107967e-15 -1.0411204769002418e-14
lhumerus 34.32843113537199 3.7215133857009697 78.66203408591771
lradius 60.65363453142736
lwrist 41.63258605094628
lhand -22.240621311059652 23.040308621711095
lfingers 7.125020000000001
lthumb -175.8235202739963 -1.5965277279516528
rclavicle -5.227142618107968e-15 -1.0411204769002418e-14
rhumerus 84.58241921939084 44.22510754672504 -59.27359209834485
rradius 44.29181656073999
rwrist 6.075315260720693
rhand -10.489051148674214 8.904242414948424
rfingers 7.125020000000001
rthumb 15.51938499161681 -20.130245454376535
76
root -5.309658990516455 18.09896547944093 -2.5454187505594352 -174.7702884203107 9.345428265592332 -178.5134881791389
lfemur -18.59100803324425 -12.70312154532575 -17.736108590197283
ltibia 21.09108585132724
lfoot 14.268013726861813 -42.76979906638205
ltoes 33.98143039559983
rfemur 10.182946348776353 -7.122681213419289 13.798016204565428
rtibia 26.50706225180567
rfoot 19.908382015368634 -35.678406343174615
rtoes 28.369216044893545
lowerback -7.781140183067793 10.090009244433325 15.954038019780356
upperback -9.809169565847583 16.550142206209994 9.669250461539924
thorax -5.580698356501011 8.860144631884323 1.7027427970996736
lowerneck -4.912344411896845 -22.157428165834666 -2.0496509790698614
upperneck 17.98979254913534 -34.42494895075554 2.8837319714924368
head 6.8909738355245995 -17.265622831661478 -1.1675527107754762
lclavicle -5.074439526613936e-15 -1.0267803394488896e-14
lhumerus 40.15214074230259 8.703555713967027 77.12861014072068
lradius 65.48365365416709
lwrist 38.37491824381038
lhand -23.345560086835206 20.574400130400754
lfingers 7.125020000000001
lthumb -176.8856682603761 -4.9782737819010805
rclavicle -5.074439526613935e-15 -1.0267803394488896e-14
rhumerus 93.98425409737999 42.17215712092293 -55.336591920518615
rradius 47.92338544139424
rwrist 6.994657733470756
rhand -13.984402867563219 10.557231056630116
rfingers 7.125020000000001
rthumb 12.149153535944986 -18.625192280147203
77
root -5.268483673506878 18.108910157583885 -2.7165381094846057 -172.78045077367727 5.8885237187025545 -177.11502624824138
lfemur -19.83364211000608 -13.596134739511339 -17.04067047836986
ltibia 22.19045983889272
lfoot 16.20267027778763 -43.334052019068224
ltoes 36.52605069647771
rfemur 11.242685665089427 -7.703781024317594 15.618834187117535
rtibia 24.66901591176812
rfoot 21.51525648799192 -36.67969519111567
rtoes 29.27980081419905
lowerback -7.992796326727953 10.38972728951113 16.262330493291344
upperback -11.226385488335861 17.454752910931962 8.496530705672317
thorax -6.555503101769076 9.301865878241202 0.3907001080074879
lowerneck -5.333905956461095 -22.395436680507597 -1.9977261264691735
upperneck 16.074418561275937 -33.952998577058196 3.50336465360935
head 6.5057871502285725 -16.918885475738847 -0.9200094705590887
lclavicle -4.823385621242122e-15 -1.0043345760671908e-14
lhumerus 46.09208023558132 12.783981357501695 75.85377622875987
lradius 69.66612408596743
lwrist 35.63148162512757
lhand -23.790265020024044 18.73455170843161
lfingers 7.125020000000001
lthumb -177.31429416584407 -0.9190049834028571
rclavicle -4.823385621242121e-15 -1.0043345760671908e-14
rhumerus 102.21172783620658 39.52546141159631 -52.131183742109016
rradius 51.50726959358941
rwrist 8.287589719694296
rhand -17.315252351999295 12.011442477019958
rfingers 7.125020000000001
rthumb 8.934048698548871 -17.275914320989763
78
root -5.226731793488287 18.114871951926496 -2.89322241622921 -171.85727575772563 2.6134132545535493 -176.62696289337634
lfemur -21.15744342038805 -14.625664257909303 -16.226767476791753
ltibia 23.295068885290387
lfoot 17.870028000428213 -43.96350484483308
ltoes 38.57187339384451
rfemur 12.443432147572198 -8.328950762058433 17.321006569378845
rtibia 22.49946045294203
rfoot 23.262374675186145 -37.47623207322904
rtoes 29.56537864010641
lowerback -8.331702736570648 10.735480403427006 16.42691913817208
upperback -12.561641772375284 18.310006506817388 7.396701515233895
thorax -7.408436264645521 9.714409175254584 -0.7860657582550212
lowerneck -5.688699600639038 -22.70937683458975 -2.2981117467496897
upperneck 14.436214208243413 -33.432651315632015 4.082198208260784
head 6.191833675013571 -16.49893694792268 -0.685155324432842
lclavicle -4.646787505409204e-15 -9.890172396166937e-15
lhumerus 51.789301537412996 15.817307947948478 74.28108179679596
lradius 72.90613730828068
lwrist 33.52015716391075
lhand -23.824854076781943 17.32194526102389
lfingers 7.125020000000001
lthumb -177.3500633111739 3.8579874562535394
rclavicle -4.646787505409205e-15 -9.890172396166937e-15
rhumerus 108.70032492897437 36.7671162722897 -50.080841869752916
rradius 54.94646738470264
rwrist 9.788797075044616
rhand -20.473148691610945 13.420482064824045
rfingers 7.125020000000001
rthumb 5.88417980033751 -15.971707477198859
